<mxfile host="app.diagrams.net" modified="2024-05-26T22:34:57.794Z" agent="Mozilla/5.0 (Windows NT 10.0; Win64; x64; rv:126.0) Gecko/20100101 Firefox/126.0" etag="QP5WUihFUx2rq5QElasT" version="24.2.3" type="device">
  <diagram name="Page-1" id="62b3GBdaToFKQ6zIL2m7">
    <mxGraphModel dx="1007" dy="628" grid="1" gridSize="10" guides="1" tooltips="1" connect="1" arrows="1" fold="1" page="1" pageScale="1" pageWidth="850" pageHeight="1100" math="0" shadow="0">
      <root>
        <mxCell id="0" />
        <mxCell id="1" parent="0" />
        <mxCell id="rnUW_8ozSyxM5U5panT7-1" value="" style="verticalLabelPosition=bottom;verticalAlign=top;html=1;shape=mxgraph.basic.layered_rect;dx=10;outlineConnect=0;whiteSpace=wrap;" vertex="1" parent="1">
          <mxGeometry x="110" y="110" width="200" height="200" as="geometry" />
        </mxCell>
        <mxCell id="rnUW_8ozSyxM5U5panT7-3" value="&lt;font style=&quot;font-size: 18px;&quot;&gt;&lt;b&gt;&lt;font style=&quot;font-size: 18px;&quot;&gt;3&lt;/font&gt;&lt;/b&gt;&lt;/font&gt;" style="strokeWidth=2;html=1;shape=mxgraph.flowchart.multi-document;whiteSpace=wrap;" vertex="1" parent="1">
          <mxGeometry x="640" y="160" width="120" height="100" as="geometry" />
        </mxCell>
        <mxCell id="rnUW_8ozSyxM5U5panT7-4" value="" style="whiteSpace=wrap;html=1;aspect=fixed;" vertex="1" parent="1">
          <mxGeometry x="110" y="400" width="200" height="200" as="geometry" />
        </mxCell>
        <mxCell id="rnUW_8ozSyxM5U5panT7-7" value="&lt;font style=&quot;font-size: 18px;&quot;&gt;&lt;b&gt;Mosaic disease&lt;/b&gt;&lt;/font&gt;" style="strokeWidth=2;html=1;shape=mxgraph.flowchart.document2;whiteSpace=wrap;size=0.25;" vertex="1" parent="1">
          <mxGeometry x="640" y="470" width="120" height="90" as="geometry" />
        </mxCell>
        <mxCell id="rnUW_8ozSyxM5U5panT7-8" value="" style="endArrow=classic;html=1;rounded=0;entryX=0;entryY=0.5;entryDx=0;entryDy=0;entryPerimeter=0;strokeWidth=4;dashed=1;dashPattern=1 1;" edge="1" parent="1" source="rnUW_8ozSyxM5U5panT7-1" target="rnUW_8ozSyxM5U5panT7-3">
          <mxGeometry width="50" height="50" relative="1" as="geometry">
            <mxPoint x="400" y="420" as="sourcePoint" />
            <mxPoint x="450" y="370" as="targetPoint" />
          </mxGeometry>
        </mxCell>
        <mxCell id="rnUW_8ozSyxM5U5panT7-9" value="" style="endArrow=classic;html=1;rounded=0;strokeWidth=4;dashed=1;dashPattern=1 1;" edge="1" parent="1">
          <mxGeometry width="50" height="50" relative="1" as="geometry">
            <mxPoint x="640" y="240" as="sourcePoint" />
            <mxPoint x="310" y="240" as="targetPoint" />
          </mxGeometry>
        </mxCell>
        <mxCell id="rnUW_8ozSyxM5U5panT7-10" value="" style="endArrow=classic;html=1;rounded=0;entryX=0;entryY=0.5;entryDx=0;entryDy=0;entryPerimeter=0;strokeWidth=4;dashed=1;dashPattern=1 1;" edge="1" parent="1">
          <mxGeometry width="50" height="50" relative="1" as="geometry">
            <mxPoint x="310" y="506.5" as="sourcePoint" />
            <mxPoint x="640" y="506.5" as="targetPoint" />
          </mxGeometry>
        </mxCell>
        <mxCell id="rnUW_8ozSyxM5U5panT7-2" value="" style="sketch=0;outlineConnect=0;fontColor=#232F3E;gradientColor=none;fillColor=#01A88D;strokeColor=none;dashed=0;verticalLabelPosition=bottom;verticalAlign=top;align=center;html=1;fontSize=12;fontStyle=0;aspect=fixed;pointerEvents=1;shape=mxgraph.aws4.sagemaker_model;" vertex="1" parent="1">
          <mxGeometry x="410" y="145.5" width="144.5" height="144.5" as="geometry" />
        </mxCell>
        <mxCell id="rnUW_8ozSyxM5U5panT7-5" value="" style="sketch=0;outlineConnect=0;fontColor=#232F3E;gradientColor=none;fillColor=#01A88D;strokeColor=none;dashed=0;verticalLabelPosition=bottom;verticalAlign=top;align=center;html=1;fontSize=12;fontStyle=0;aspect=fixed;pointerEvents=1;shape=mxgraph.aws4.sagemaker_model;" vertex="1" parent="1">
          <mxGeometry x="410" y="435.5" width="144.5" height="144.5" as="geometry" />
        </mxCell>
        <mxCell id="rnUW_8ozSyxM5U5panT7-12" value="" style="shape=image;html=1;verticalAlign=top;verticalLabelPosition=bottom;labelBackgroundColor=#ffffff;imageAspect=0;aspect=fixed;image=https://cdn1.iconfinder.com/data/icons/unicons-line-vol-3/24/docker-128.png" vertex="1" parent="1">
          <mxGeometry x="440" y="390" width="98" height="98" as="geometry" />
        </mxCell>
      </root>
    </mxGraphModel>
  </diagram>
</mxfile>
